<svg xmlns="http://www.w3.org/2000/svg" xmlns:xlink="http://www.w3.org/1999/xlink" width="230" zoomAndPan="magnify" viewBox="0 0 172.5 46.499999" height="62" preserveAspectRatio="xMidYMid meet" version="1.0"><defs><g/><clipPath id="06e934784a"><path d="M 1 0 L 14.621094 0 L 14.621094 45.53125 L 1 45.53125 Z M 1 0 " clip-rule="nonzero"/></clipPath></defs><g clip-path="url(#06e934784a)"><path fill="#ffffff" d="M 6.992188 9.207031 C 6.988281 8.753906 6.617188 8.652344 6.285156 8.523438 C 5.570312 8.269531 5.867188 7.714844 5.945312 7.222656 L 5.851562 7.203125 L 5.820312 7.28125 C 5.457031 7.269531 5.359375 7.453125 5.21875 7.605469 C 4.851562 7.789062 4.523438 7.59375 4.535156 7.234375 C 4.273438 6.90625 4.300781 6.640625 4.6875 6.457031 C 4.816406 6.136719 5.355469 5.996094 5.546875 6.46875 C 5.554688 6.757812 5.726562 6.816406 5.902344 6.890625 L 5.902344 6.972656 L 5.996094 6.988281 L 6.3125 5.425781 L 6.222656 5.410156 L 6.191406 5.492188 C 5.804688 5.472656 5.707031 5.636719 5.59375 5.800781 C 5.253906 6.023438 4.90625 5.804688 4.90625 5.417969 C 4.613281 5.089844 4.726562 4.792969 5.066406 4.648438 C 5.191406 4.367188 5.6875 4.148438 5.914062 4.664062 C 5.9375 4.964844 6.085938 5.027344 6.261719 5.101562 L 6.265625 5.175781 L 6.371094 5.199219 L 6.683594 3.609375 L 6.597656 3.59375 L 6.578125 3.667969 C 6.238281 3.652344 6.105469 3.800781 5.988281 3.964844 C 5.660156 4.199219 5.214844 4.015625 5.269531 3.5625 C 5.042969 3.339844 5.101562 2.941406 5.4375 2.835938 C 5.613281 2.40625 6.171875 2.453125 6.300781 2.875 C 6.308594 3.152344 6.519531 3.183594 6.664062 3.296875 L 6.648438 3.359375 L 6.742188 3.378906 L 7.066406 1.8125 L 6.980469 1.796875 L 6.960938 1.859375 C 6.714844 1.832031 6.550781 1.917969 6.429688 2.070312 C 6.199219 2.425781 5.589844 2.253906 5.652344 1.765625 C 5.339844 1.464844 5.546875 1.074219 5.800781 1.023438 C 5.921875 0.660156 6.523438 0.566406 6.644531 1.078125 C 6.703125 1.238281 6.753906 1.386719 7.027344 1.46875 L 7.019531 1.535156 L 7.117188 1.558594 C 7.371094 0 9.167969 0.0664062 9.632812 1.113281 C 9.914062 1.816406 9.664062 2.402344 9.324219 2.703125 C 9.042969 2.949219 8.898438 3.152344 8.945312 3.59375 C 9.132812 4.839844 9.648438 5.242188 9.6875 7.199219 C 9.691406 7.296875 9.675781 7.359375 9.640625 7.375 C 8.777344 7.585938 8.589844 8.167969 8.589844 8.859375 L 8.992188 31.097656 C 9.042969 31.21875 9.214844 31.757812 9.859375 31.671875 C 10.785156 31.582031 11.164062 30.878906 11.335938 29.894531 C 11.507812 29.144531 12.242188 29.003906 12.75 29.644531 C 13.277344 30.308594 13.183594 31.601562 13.113281 31.984375 C 12.886719 33.269531 12.503906 33.738281 12.257812 34.589844 C 12.121094 35.0625 12.222656 35.640625 12.453125 36.136719 C 13.394531 38.21875 14.539062 40.28125 13.910156 42.488281 C 13.210938 44.949219 10.835938 45.5625 7.664062 45.46875 C 4.449219 45.4375 2.816406 44.859375 1.785156 42.820312 C 0.671875 40.039062 1.980469 38.566406 2.714844 36.78125 C 3.246094 35.78125 3.632812 34.058594 3.214844 32.839844 C 2.40625 30.476562 1.960938 28.875 2.667969 26.664062 C 2.890625 26.046875 3.425781 25.617188 3.847656 25.652344 C 3.957031 25.660156 4.355469 25.71875 4.511719 26.152344 C 4.707031 26.695312 4.742188 27.167969 4.785156 27.75 C 4.84375 28.703125 5.808594 29.933594 6.609375 29.070312 Z M 6.992188 9.207031 " fill-opacity="1" fill-rule="evenodd"/></g><g fill="#e99401" fill-opacity="1"><g transform="translate(109.874656, 32.31144)"><g><path d="M 12.703125 -6.40625 C 12.703125 -3.988281 12.113281 -2.265625 10.9375 -1.234375 C 9.757812 -0.210938 7.945312 0.296875 5.5 0.296875 C 4.351562 0.296875 3.101562 0.175781 1.75 -0.0625 C 1.382812 -0.125 1.128906 -0.25 0.984375 -0.4375 C 0.847656 -0.625 0.789062 -0.929688 0.8125 -1.359375 L 1.09375 -4.8125 C 1.132812 -5.269531 1.332031 -5.5 1.6875 -5.5 C 1.9375 -5.5 2.179688 -5.472656 2.421875 -5.421875 C 2.859375 -5.335938 3.210938 -5.296875 3.484375 -5.296875 C 4.242188 -5.296875 4.828125 -5.515625 5.234375 -5.953125 C 5.640625 -6.398438 5.84375 -7.117188 5.84375 -8.109375 L 5.84375 -21.75 C 5.84375 -21.96875 5.894531 -22.140625 6 -22.265625 C 6.113281 -22.390625 6.257812 -22.453125 6.4375 -22.453125 L 12.15625 -22.453125 C 12.519531 -22.453125 12.703125 -22.238281 12.703125 -21.8125 Z M 12.703125 -6.40625 "/></g></g></g><g fill="#e99401" fill-opacity="1"><g transform="translate(123.999561, 32.31144)"><g><path d="M 1.296875 0 C 1.140625 0 1.007812 -0.0507812 0.90625 -0.15625 C 0.800781 -0.269531 0.75 -0.429688 0.75 -0.640625 C 0.75 -0.773438 0.78125 -0.9375 0.84375 -1.125 L 8.171875 -21.75 C 8.265625 -22.007812 8.375 -22.191406 8.5 -22.296875 C 8.625 -22.398438 8.816406 -22.453125 9.078125 -22.453125 L 15.03125 -22.453125 C 15.269531 -22.453125 15.484375 -22.375 15.671875 -22.21875 C 15.867188 -22.0625 16.019531 -21.863281 16.125 -21.625 L 23.390625 -1.03125 C 23.421875 -0.863281 23.4375 -0.742188 23.4375 -0.671875 C 23.4375 -0.484375 23.394531 -0.320312 23.3125 -0.1875 C 23.238281 -0.0625 23.117188 0 22.953125 0 L 17.03125 0 C 16.6875 0 16.460938 -0.171875 16.359375 -0.515625 L 15.1875 -4 C 15.125 -4.132812 15.066406 -4.226562 15.015625 -4.28125 C 14.960938 -4.332031 14.867188 -4.359375 14.734375 -4.359375 L 8.3125 -4.359375 C 8.070312 -4.359375 7.921875 -4.242188 7.859375 -4.015625 L 6.625 -0.453125 C 6.5 -0.148438 6.257812 0 5.90625 0 Z M 13.21875 -9.5 C 13.4375 -9.5 13.546875 -9.597656 13.546875 -9.796875 C 13.546875 -9.835938 13.523438 -9.941406 13.484375 -10.109375 L 11.671875 -15.28125 C 11.628906 -15.375 11.566406 -15.421875 11.484375 -15.421875 C 11.410156 -15.421875 11.351562 -15.375 11.3125 -15.28125 L 9.46875 -10.140625 C 9.425781 -10.054688 9.40625 -9.953125 9.40625 -9.828125 C 9.40625 -9.609375 9.523438 -9.5 9.765625 -9.5 Z M 13.21875 -9.5 "/></g></g></g><g fill="#e99401" fill-opacity="1"><g transform="translate(148.166154, 32.31144)"><g><path d="M 11.640625 -22.75 C 13.316406 -22.75 14.828125 -22.453125 16.171875 -21.859375 C 17.523438 -21.265625 18.632812 -20.441406 19.5 -19.390625 C 20.375 -18.335938 20.941406 -17.140625 21.203125 -15.796875 C 21.265625 -15.546875 21.296875 -15.351562 21.296875 -15.21875 C 21.296875 -15.03125 21.257812 -14.90625 21.1875 -14.84375 C 21.113281 -14.789062 20.988281 -14.753906 20.8125 -14.734375 L 15.515625 -14.40625 C 15.316406 -14.40625 15.1875 -14.4375 15.125 -14.5 C 15.0625 -14.570312 15 -14.726562 14.9375 -14.96875 C 14.757812 -15.9375 14.425781 -16.695312 13.9375 -17.25 C 13.457031 -17.8125 12.753906 -18.09375 11.828125 -18.09375 C 10.640625 -18.09375 9.722656 -17.566406 9.078125 -16.515625 C 8.429688 -15.460938 8.109375 -13.757812 8.109375 -11.40625 C 8.109375 -8.96875 8.40625 -7.234375 9 -6.203125 C 9.59375 -5.171875 10.523438 -4.65625 11.796875 -4.65625 C 12.867188 -4.65625 13.78125 -4.925781 14.53125 -5.46875 C 15.289062 -6.019531 15.921875 -6.929688 16.421875 -8.203125 C 16.484375 -8.378906 16.65625 -8.46875 16.9375 -8.46875 C 17.082031 -8.46875 17.191406 -8.457031 17.265625 -8.4375 L 21.046875 -7.6875 C 21.347656 -7.582031 21.5 -7.347656 21.5 -6.984375 C 21.5 -6.421875 21.148438 -5.546875 20.453125 -4.359375 C 19.765625 -3.179688 18.675781 -2.109375 17.1875 -1.140625 C 15.707031 -0.179688 13.835938 0.296875 11.578125 0.296875 C 9.441406 0.296875 7.566406 -0.207031 5.953125 -1.21875 C 4.347656 -2.238281 3.101562 -3.640625 2.21875 -5.421875 C 1.34375 -7.210938 0.90625 -9.25 0.90625 -11.53125 C 0.90625 -13.78125 1.34375 -15.753906 2.21875 -17.453125 C 3.101562 -19.148438 4.351562 -20.457031 5.96875 -21.375 C 7.59375 -22.289062 9.484375 -22.75 11.640625 -22.75 Z M 11.640625 -22.75 "/></g></g></g><g fill="#ffffff" fill-opacity="1"><g transform="translate(15.602497, 31.22759)"><g><path d="M 20.296875 -11.417969 L 12.984375 -11.417969 C 12.691406 -11.417969 12.511719 -11.226562 12.511719 -10.917969 L 12.511719 -8.421875 C 12.511719 -8.09375 12.691406 -7.933594 12.984375 -7.933594 L 16.8125 -7.933594 L 16.8125 -4.742188 C 15.925781 -4.105469 14.242188 -3.621094 13.089844 -3.621094 C 8.671875 -3.621094 5.511719 -7.003906 5.511719 -11.210938 C 5.511719 -15.378906 8.847656 -18.644531 13.089844 -18.644531 C 14.476562 -18.644531 16.265625 -18.1875 17.59375 -17.035156 C 17.890625 -16.78125 18.273438 -16.8125 18.496094 -17.121094 L 20.121094 -19.589844 C 20.3125 -19.871094 20.253906 -20.253906 19.972656 -20.488281 C 18.140625 -22.027344 15.335938 -22.78125 13.074219 -22.78125 C 6.5 -22.78125 1.328125 -17.726562 1.328125 -11.210938 C 1.328125 -4.683594 6.515625 0.355469 13.089844 0.355469 C 15.613281 0.355469 18.703125 -0.574219 20.429688 -1.757812 C 20.636719 -1.90625 20.785156 -2.230469 20.785156 -2.480469 L 20.785156 -10.917969 C 20.785156 -11.226562 20.59375 -11.417969 20.296875 -11.417969 Z M 20.296875 -11.417969 "/></g></g></g><g fill="#ffffff" fill-opacity="1"><g transform="translate(38.331327, 31.22759)"><g><path d="M 15.808594 -15.007812 L 12.984375 -15.007812 C 12.691406 -15.007812 12.511719 -14.847656 12.511719 -14.535156 L 12.511719 -6.367188 C 12.511719 -4.566406 10.902344 -3.042969 8.90625 -3.042969 C 6.882812 -3.042969 5.570312 -4.386719 5.570312 -6.292969 L 5.570312 -14.523438 C 5.570312 -14.816406 5.390625 -14.996094 5.097656 -14.996094 L 2.289062 -14.996094 C 1.996094 -14.996094 1.816406 -14.816406 1.816406 -14.523438 L 1.816406 -6.085938 C 1.816406 -2.113281 4.269531 0.371094 7.769531 0.371094 C 9.914062 0.371094 11.996094 -0.886719 12.957031 -2.613281 L 13.648438 -0.308594 C 13.753906 -0.117188 13.929688 0.015625 14.152344 0.015625 L 15.792969 0.015625 C 16.085938 0.015625 16.265625 -0.175781 16.265625 -0.457031 L 16.265625 -14.535156 C 16.265625 -14.847656 16.101562 -15.007812 15.808594 -15.007812 Z M 15.808594 -15.007812 "/></g></g></g><g fill="#ffffff" fill-opacity="1"><g transform="translate(56.555744, 31.22759)"><g><path d="M 3.828125 -17.167969 C 5.050781 -17.167969 6.027344 -18.125 6.027344 -19.351562 C 6.027344 -20.550781 5.050781 -21.539062 3.828125 -21.539062 C 2.613281 -21.539062 1.640625 -20.550781 1.640625 -19.351562 C 1.640625 -18.125 2.613281 -17.167969 3.828125 -17.167969 Z M 5.257812 -15.007812 L 2.40625 -15.007812 C 2.113281 -15.007812 1.964844 -14.832031 1.964844 -14.550781 L 1.964844 -0.429688 C 1.964844 -0.148438 2.113281 0.015625 2.40625 0.015625 L 5.257812 0.015625 C 5.539062 0.015625 5.71875 -0.148438 5.71875 -0.429688 L 5.71875 -14.550781 C 5.71875 -14.832031 5.539062 -15.007812 5.257812 -15.007812 Z M 5.257812 -15.007812 "/></g></g></g><g fill="#ffffff" fill-opacity="1"><g transform="translate(64.235401, 31.22759)"><g><path d="M 9.128906 -3.175781 C 7.519531 -3.175781 6.515625 -3.972656 6.515625 -5.65625 L 6.515625 -11.878906 L 9.292969 -11.878906 C 9.574219 -11.878906 9.71875 -12.054688 9.71875 -12.320312 L 9.71875 -14.550781 C 9.71875 -14.832031 9.558594 -14.996094 9.292969 -14.996094 L 6.5 -14.996094 L 6.5 -19.839844 C 6.5 -20.195312 6.308594 -20.296875 5.96875 -20.238281 L 3.148438 -19.617188 C 2.878906 -19.542969 2.761719 -19.351562 2.761719 -19.101562 L 2.761719 -14.996094 L 1.035156 -14.996094 C 0.753906 -14.996094 0.589844 -14.816406 0.589844 -14.535156 L 0.589844 -12.320312 C 0.589844 -12.054688 0.753906 -11.878906 1.035156 -11.878906 L 2.761719 -11.878906 L 2.761719 -5.71875 C 2.761719 -1.714844 5.171875 0.355469 9.085938 0.355469 C 9.515625 0.355469 9.824219 0.101562 9.824219 -0.25 L 9.824219 -2.613281 C 9.824219 -2.941406 9.527344 -3.175781 9.128906 -3.175781 Z M 9.128906 -3.175781 "/></g></g></g><g fill="#ffffff" fill-opacity="1"><g transform="translate(75.503821, 31.22759)"><g><path d="M 16.191406 -15.007812 L 14.550781 -15.007812 C 14.316406 -15.007812 14.136719 -14.875 14.050781 -14.683594 L 13.445312 -12.660156 C 12.246094 -14.375 10.398438 -15.363281 8.230469 -15.363281 C 4.136719 -15.363281 1.050781 -12.023438 1.050781 -7.476562 C 1.050781 -3.015625 4.152344 0.339844 8.242188 0.339844 C 10.414062 0.339844 12.246094 -0.648438 13.445312 -2.335938 L 14.050781 -0.308594 C 14.136719 -0.117188 14.316406 0.015625 14.550781 0.015625 L 16.191406 0.015625 C 16.472656 0.015625 16.664062 -0.175781 16.664062 -0.457031 L 16.664062 -14.523438 C 16.664062 -14.816406 16.472656 -15.007812 16.191406 -15.007812 Z M 8.9375 -3.339844 C 6.707031 -3.339844 4.832031 -5.15625 4.832031 -7.488281 C 4.832031 -9.855469 6.691406 -11.671875 8.921875 -11.671875 C 11.199219 -11.671875 13.105469 -9.855469 13.105469 -7.488281 C 13.105469 -5.15625 11.210938 -3.339844 8.9375 -3.339844 Z M 8.9375 -3.339844 "/></g></g></g><g fill="#ffffff" fill-opacity="1"><g transform="translate(94.126988, 31.22759)"><g><path d="M 13.339844 -13.960938 C 12.320312 -14.800781 10.945312 -15.347656 9.765625 -15.347656 C 7.992188 -15.347656 6.191406 -14.210938 5.230469 -12.527344 L 4.578125 -14.683594 C 4.476562 -14.875 4.3125 -15.007812 4.078125 -15.007812 L 2.4375 -15.007812 C 2.15625 -15.007812 1.964844 -14.816406 1.964844 -14.523438 L 1.964844 -0.441406 C 1.964844 -0.148438 2.128906 0.015625 2.421875 0.015625 L 5.257812 0.015625 C 5.539062 0.015625 5.71875 -0.148438 5.71875 -0.441406 L 5.71875 -8.214844 C 5.71875 -10.3125 7.253906 -12.097656 9.308594 -12.097656 C 9.972656 -12.097656 10.8125 -11.730469 11.492188 -11.167969 C 11.730469 -10.960938 11.996094 -11.019531 12.1875 -11.316406 L 13.398438 -13.265625 C 13.578125 -13.53125 13.515625 -13.8125 13.339844 -13.960938 Z M 13.339844 -13.960938 "/></g></g></g></svg>